<?xml version="1.0" encoding="UTF-8"?>
<svg id="Layer_2" data-name="Layer 2" xmlns="http://www.w3.org/2000/svg" xmlns:xlink="http://www.w3.org/1999/xlink" width="624.63" height="879.74" viewBox="0 0 624.63 879.74">
  <defs>
    <style>
      .cls-1, .cls-2, .cls-3, .cls-4 {
        fill: none;
      }

      .cls-2 {
        stroke: #231916;
      }

      .cls-2, .cls-4 {
        stroke-miterlimit: 10;
      }

      .cls-3 {
        stroke-linecap: round;
        stroke-linejoin: round;
      }

      .cls-3, .cls-4 {
        stroke: #595857;
        stroke-width: .75px;
      }

      .cls-5 {
        fill: #fff;
      }

      .cls-6 {
        clip-path: url(#clippath);
      }
    </style>
    <clipPath id="clippath">
      <path class="cls-1" d="M14.62.5C6.83.5.45,6.88.45,14.67v860.31h0c0,2.35,1.9,4.26,4.25,4.26h619.37V.5H14.62Z"/>
    </clipPath>
  </defs>
  <g id="_レイヤー_1" data-name="レイヤー 1">
    <g class="cls-6">
      <g>
        <path class="cls-5" d="M221.08,44.97c-1.94-2.84-3.07-6.27-3.07-9.97,0-9.8,7.94-17.74,17.74-17.74s17.74,7.94,17.74,17.74c0,6.11-3.09,11.5-7.8,14.69l16.57,3.17v45.67c0,10.7.99,20.69,2.78,30.12,2.51-1.91,5.6-3.08,9-3.08,8.25,0,14.94,6.69,14.94,14.94s-6.69,14.94-14.94,14.94c-.3,0-.59-.07-.88-.09,3.96,9,8.96,17.26,15.09,24.72,17.32,21.04,41.73,34.57,73.23,40.61,31.49,6.04,55.9,1.86,73.23-12.54,17.32-14.4,25.98-38.27,25.98-71.59V13.72l-113.35-21.72h-183.49v42l57.24,10.97ZM324.47,64.78l74.01,14.18v25.59c0,28.35-12.34,40.15-37.01,35.43-24.67-4.73-37.01-21.26-37.01-49.61v-25.59ZM266.56,2.31c3.62,0,6.56,2.94,6.56,6.56s-2.94,6.56-6.56,6.56-6.56-2.94-6.56-6.56,2.94-6.56,6.56-6.56ZM204.93,22.85c3.09,0,5.6,2.51,5.6,5.6s-2.51,5.6-5.6,5.6-5.6-2.51-5.6-5.6,2.51-5.6,5.6-5.6Z"/>
        <path class="cls-5" d="M174.62,266.76l97.09,18.61c13.39,2.57,23.68,7.75,30.9,15.57,7.22,7.81,10.83,17.76,10.83,29.83,0,4.46-.66,8.53-1.97,12.22-1.32,3.68-3.54,6.8-6.69,9.35-3.68,2.97-8.6,4.58-14.76,4.85-6.17.26-14.24-.56-24.21-2.47l-59.42-11.39c4.81,3.94,7.89,9.92,7.89,16.63,0,11.86-9.62,21.48-21.48,21.48-4.53,0-8.72-1.41-12.18-3.8,0,.37-.08.72-.11,1.08,5.67,3.44,9.49,9.61,9.49,16.72,0,5.89-2.65,11.12-6.77,14.71l21.78,4.17c.38-6.88,6.03-12.35,13-12.35s13.07,5.85,13.07,13.07c0,1.45-.29,2.83-.73,4.13l61.83,11.85c10.76,2.06,20.34,2.84,28.74,2.36,8.39-.49,16.01-2.97,22.83-7.44,8.4-5.48,14.89-12.83,19.49-22.05,4.59-9.23,6.89-20.92,6.89-35.09,0-13.39-2.04-25.46-6.1-36.21-4.07-10.76-12.01-22.12-23.82-34.09l25.59,4.9v-71.26l-201.96-38.7v61.77c5.37,1.66,9.52,6.03,10.78,11.56ZM234.82,253.47c3.62,0,6.56,2.94,6.56,6.56s-2.94,6.56-6.56,6.56-6.56-2.94-6.56-6.56,2.94-6.56,6.56-6.56ZM195.6,215.21c9.28,0,16.81,7.52,16.81,16.81s-7.53,16.81-16.81,16.81-16.81-7.53-16.81-16.81,7.52-16.81,16.81-16.81Z"/>
        <path class="cls-5" d="M171.32,359.94c0-9.6,6.3-17.72,14.99-20.47l-22.46-4.3v23.98c2.74.21,5.29,1.01,7.55,2.3-.03-.5-.07-1-.07-1.51Z"/>
        <path class="cls-5" d="M315.53,450.92c-41.98-7.78-80.68.89-108.96,24.41-27.59,22.95-42.79,57.72-42.79,97.9,0,17.33,3.44,48.77,10.29,68.27l2.18.42,2.11.4,46.83,8.97c-1-2.94-1.57-6.07-1.57-9.35,0-4.89,1.22-9.5,3.37-13.54-9.75-1.53-17.23-9.9-17.23-20.07,0-11.27,9.13-20.4,20.39-20.4,2.2,0,4.28.44,6.26,1.08-.04-2.05-.1-4.12-.01-6.03.86-19.27,8.72-35.77,22.13-46.47,14.27-11.39,34.04-15.5,55.66-11.57,42.95,7.79,72.22,39.22,76.39,82.03,2.45,25.09-7.69,56.66-15.5,73.05l1.48.28,1.47.28,61.74,11.83,1.91.37,1.97.38c9.95-19.15,18.17-51.77,16.98-83.27-3.1-82.05-58.7-142.96-145.09-158.97ZM195.6,570.93c-4.61,0-8.35-3.74-8.35-8.35s3.74-8.35,8.35-8.35,8.35,3.74,8.35,8.35-3.74,8.35-8.35,8.35ZM212.4,508.47c-3.62,0-6.56-2.94-6.56-6.56s2.94-6.56,6.56-6.56,6.56,2.94,6.56,6.56-2.94,6.56-6.56,6.56ZM262.4,509.95c-1.55,6.61-7.44,11.54-14.52,11.54-8.25,0-14.94-6.69-14.94-14.94,0-4.98,2.46-9.36,6.21-12.07-.36-1.53-.6-3.1-.6-4.73,0-11.35,9.2-20.54,20.54-20.54s20.54,9.2,20.54,20.54c0,10.21-7.47,18.62-17.23,20.21ZM301.17,514.98c-3.62,0-6.56-2.94-6.56-6.56s2.94-6.56,6.56-6.56,6.56,2.94,6.56,6.56-2.94,6.56-6.56,6.56Z"/>
        <path class="cls-5" d="M460.68,840.45v-120.08l-184.93-35.44c-1.45,17.23-15.87,30.77-33.47,30.77-18.56,0-33.61-15.05-33.61-33.61,0-3.39.51-6.65,1.44-9.73l-46.27-8.87v57.41c2.9-2.08,6.44-3.33,10.28-3.33,9.8,0,17.74,7.94,17.74,17.74,0,3.76-1.19,7.23-3.18,10.1l89.33,17.12-114.17,51.74v35.89c8.78,3.66,14.95,12.31,14.95,22.41,0,5.74-2,11.01-5.32,15.16h29.64l69.6-40.04c-1.49-1.9-2.41-4.26-2.41-6.86,0-6.19,5.02-11.21,11.21-11.21s11.21,5.02,11.21,11.21c0,3.74-1.85,7.04-4.67,9.07,4.46,14.75,11.14,27.36,20.09,37.84h142.74c.89-1.73,1.73-3.52,2.53-5.38,4.85-11.41,7.28-25.37,7.28-41.91ZM232.01,844.57c-.99,0-1.93-.2-2.81-.52.6,1.3.95,2.73.95,4.25,0,5.67-4.6,10.27-10.27,10.27s-10.27-4.6-10.27-10.27,4.6-10.27,10.27-10.27c1.52,0,2.95.35,4.26.95-.32-.88-.52-1.82-.52-2.81,0-4.64,3.76-8.4,8.4-8.4s8.4,3.76,8.4,8.4-3.76,8.4-8.4,8.4ZM249.76,814.69c-2.06,0-3.73-1.67-3.73-3.73s1.67-3.74,3.73-3.74,3.73,1.67,3.73,3.74-1.67,3.73-3.73,3.73ZM292.71,726.92c-4.12,0-7.47-3.34-7.47-7.47s3.34-7.47,7.47-7.47,7.47,3.34,7.47,7.47-3.34,7.47-7.47,7.47ZM315.12,876.32c-2.06,0-3.73-1.67-3.73-3.74s1.67-3.73,3.73-3.73,3.73,1.67,3.73,3.73-1.67,3.74-3.73,3.74ZM401.24,800.72c0,15.22-3.15,26.3-9.45,33.23-6.3,6.93-15.36,9.26-27.17,7-11.81-2.26-20.87-8.07-27.16-17.41-6.3-9.35-9.45-21.63-9.45-36.85v-14.57l73.23,14.03v14.56Z"/>
      </g>
    </g>
    <g>
      <g>
        <path class="cls-4" d="M582.13,876.42h0c-.78,0-1.42-.64-1.42-1.42v-5.67c0-.78.64-1.42,1.42-1.42h0c.78,0,1.42.64,1.42,1.42v5.67c0,.78-.64,1.42-1.42,1.42Z"/>
        <path class="cls-4" d="M576.58,867.92c.78,0,1.42.64,1.42,1.42v5.67c0,.78-.64,1.42-1.42,1.42h0c-.78,0-1.42-.64-1.42-1.42v-5.67c0-.78.64-1.42,1.42-1.42h0Z"/>
        <path class="cls-4" d="M571.03,867.92c.78,0,1.42.64,1.42,1.42v5.67c0,.78-.64,1.42-1.42,1.42h0c-.78,0-1.42-.64-1.42-1.42v-5.67c0-.78.64-1.42,1.42-1.42h0Z"/>
        <path class="cls-4" d="M565.48,867.92c.78,0,1.42.64,1.42,1.42v5.67c0,.78-.64,1.42-1.42,1.42h0c-.78,0-1.42-.64-1.42-1.42v-5.67c0-.78.64-1.42,1.42-1.42h0Z"/>
        <path class="cls-4" d="M559.93,867.92c.78,0,1.42.64,1.42,1.42v5.67c0,.78-.64,1.42-1.42,1.42h0c-.78,0-1.42-.64-1.42-1.42v-5.67c0-.78.64-1.42,1.42-1.42h0Z"/>
        <rect class="cls-4" x="552.97" y="867.92" width="2.83" height="8.5" rx="1.42" ry="1.42"/>
        <path class="cls-4" d="M548.83,867.92c.78,0,1.42.64,1.42,1.42v5.67c0,.78-.64,1.42-1.42,1.42h0c-.78,0-1.42-.64-1.42-1.42v-5.67c0-.78.64-1.42,1.42-1.42h0Z"/>
        <path class="cls-4" d="M543.28,867.92c.78,0,1.42.64,1.42,1.42v5.67c0,.78-.64,1.42-1.42,1.42h0c-.78,0-1.42-.64-1.42-1.42v-5.67c0-.78.64-1.42,1.42-1.42h0Z"/>
        <path class="cls-4" d="M537.73,867.92c.78,0,1.42.64,1.42,1.42v5.67c0,.78-.64,1.42-1.42,1.42h0c-.78,0-1.42-.64-1.42-1.42v-5.67c0-.78.64-1.42,1.42-1.42h0Z"/>
        <path class="cls-4" d="M532.18,867.92c.78,0,1.42.64,1.42,1.42v5.67c0,.78-.64,1.42-1.42,1.42h0c-.78,0-1.42-.64-1.42-1.42v-5.67c0-.78.64-1.42,1.42-1.42h0Z"/>
        <path class="cls-4" d="M526.63,867.92c.78,0,1.42.64,1.42,1.42v5.67c0,.78-.64,1.42-1.42,1.42h0c-.78,0-1.42-.64-1.42-1.42v-5.67c0-.78.64-1.42,1.42-1.42h0Z"/>
        <path class="cls-4" d="M521.08,867.92c.78,0,1.42.64,1.42,1.42v5.67c0,.78-.64,1.42-1.42,1.42h0c-.78,0-1.42-.64-1.42-1.42v-5.67c0-.78.64-1.42,1.42-1.42h0Z"/>
        <path class="cls-4" d="M515.53,867.92c.78,0,1.42.64,1.42,1.42v5.67c0,.78-.64,1.42-1.42,1.42h0c-.78,0-1.42-.64-1.42-1.42v-5.67c0-.78.64-1.42,1.42-1.42h0Z"/>
        <path class="cls-4" d="M509.98,867.92c.78,0,1.42.64,1.42,1.42v5.67c0,.78-.64,1.42-1.42,1.42h0c-.78,0-1.42-.64-1.42-1.42v-5.67c0-.78.64-1.42,1.42-1.42h0Z"/>
        <path class="cls-4" d="M504.43,867.92c.78,0,1.42.64,1.42,1.42v5.67c0,.78-.64,1.42-1.42,1.42h0c-.78,0-1.42-.64-1.42-1.42v-5.67c0-.78.64-1.42,1.42-1.42h0Z"/>
        <path class="cls-4" d="M498.88,867.92c.78,0,1.42.64,1.42,1.42v5.67c0,.78-.64,1.42-1.42,1.42h0c-.78,0-1.42-.64-1.42-1.42v-5.67c0-.78.64-1.42,1.42-1.42h0Z"/>
        <path class="cls-4" d="M493.33,867.92c.78,0,1.42.64,1.42,1.42v5.67c0,.78-.64,1.42-1.42,1.42h0c-.78,0-1.42-.64-1.42-1.42v-5.67c0-.78.64-1.42,1.42-1.42h0Z"/>
        <path class="cls-4" d="M487.78,867.92c.78,0,1.42.64,1.42,1.42v5.67c0,.78-.64,1.42-1.42,1.42h0c-.78,0-1.42-.64-1.42-1.42v-5.67c0-.78.64-1.42,1.42-1.42h0Z"/>
        <path class="cls-4" d="M482.23,867.92c.78,0,1.42.64,1.42,1.42v5.67c0,.78-.64,1.42-1.42,1.42h0c-.78,0-1.42-.64-1.42-1.42v-5.67c0-.78.64-1.42,1.42-1.42h0Z"/>
        <path class="cls-4" d="M476.68,867.92c.78,0,1.42.64,1.42,1.42v5.67c0,.78-.64,1.42-1.42,1.42h0c-.78,0-1.42-.64-1.42-1.42v-5.67c0-.78.64-1.42,1.42-1.42h0Z"/>
        <path class="cls-4" d="M471.13,867.92c.78,0,1.42.64,1.42,1.42v5.67c0,.78-.64,1.42-1.42,1.42h0c-.78,0-1.42-.64-1.42-1.42v-5.67c0-.78.64-1.42,1.42-1.42h0Z"/>
        <path class="cls-4" d="M465.58,867.92c.78,0,1.42.64,1.42,1.42v5.67c0,.78-.64,1.42-1.42,1.42h0c-.78,0-1.42-.64-1.42-1.42v-5.67c0-.78.64-1.42,1.42-1.42h0Z"/>
        <path class="cls-4" d="M460.03,867.92c.78,0,1.42.64,1.42,1.42v5.67c0,.78-.64,1.42-1.42,1.42h0c-.78,0-1.42-.64-1.42-1.42v-5.67c0-.78.64-1.42,1.42-1.42h0Z"/>
        <path class="cls-4" d="M454.48,867.92c.78,0,1.42.64,1.42,1.42v5.67c0,.78-.64,1.42-1.42,1.42h0c-.78,0-1.42-.64-1.42-1.42v-5.67c0-.78.64-1.42,1.42-1.42h0Z"/>
        <path class="cls-4" d="M448.93,867.92c.78,0,1.42.64,1.42,1.42v5.67c0,.78-.64,1.42-1.42,1.42h0c-.78,0-1.42-.64-1.42-1.42v-5.67c0-.78.64-1.42,1.42-1.42h0Z"/>
        <path class="cls-4" d="M443.38,867.92c.78,0,1.42.64,1.42,1.42v5.67c0,.78-.64,1.42-1.42,1.42h0c-.78,0-1.42-.64-1.42-1.42v-5.67c0-.78.64-1.42,1.42-1.42h0Z"/>
        <path class="cls-4" d="M437.83,867.92c.78,0,1.42.64,1.42,1.42v5.67c0,.78-.64,1.42-1.42,1.42h0c-.78,0-1.42-.64-1.42-1.42v-5.67c0-.78.64-1.42,1.42-1.42h0Z"/>
        <path class="cls-4" d="M432.28,867.92c.78,0,1.42.64,1.42,1.42v5.67c0,.78-.64,1.42-1.42,1.42h0c-.78,0-1.42-.64-1.42-1.42v-5.67c0-.78.64-1.42,1.42-1.42h0Z"/>
        <path class="cls-4" d="M426.73,867.92c.78,0,1.42.64,1.42,1.42v5.67c0,.78-.64,1.42-1.42,1.42h0c-.78,0-1.42-.64-1.42-1.42v-5.67c0-.78.64-1.42,1.42-1.42h0Z"/>
        <path class="cls-4" d="M421.18,867.92c.78,0,1.42.64,1.42,1.42v5.67c0,.78-.64,1.42-1.42,1.42h0c-.78,0-1.42-.64-1.42-1.42v-5.67c0-.78.64-1.42,1.42-1.42h0Z"/>
        <path class="cls-4" d="M415.63,867.92c.78,0,1.42.64,1.42,1.42v5.67c0,.78-.64,1.42-1.42,1.42h0c-.78,0-1.42-.64-1.42-1.42v-5.67c0-.78.64-1.42,1.42-1.42h0Z"/>
        <path class="cls-4" d="M410.08,867.92c.78,0,1.42.64,1.42,1.42v5.67c0,.78-.64,1.42-1.42,1.42h0c-.78,0-1.42-.64-1.42-1.42v-5.67c0-.78.64-1.42,1.42-1.42h0Z"/>
        <path class="cls-4" d="M404.53,867.92c.78,0,1.42.64,1.42,1.42v5.67c0,.78-.64,1.42-1.42,1.42h0c-.78,0-1.42-.64-1.42-1.42v-5.67c0-.78.64-1.42,1.42-1.42h0Z"/>
        <path class="cls-4" d="M398.98,867.92c.78,0,1.42.64,1.42,1.42v5.67c0,.78-.64,1.42-1.42,1.42h0c-.78,0-1.42-.64-1.42-1.42v-5.67c0-.78.64-1.42,1.42-1.42h0Z"/>
        <path class="cls-4" d="M393.43,867.92c.78,0,1.42.64,1.42,1.42v5.67c0,.78-.64,1.42-1.42,1.42h0c-.78,0-1.42-.64-1.42-1.42v-5.67c0-.78.64-1.42,1.42-1.42h0Z"/>
        <path class="cls-4" d="M387.88,867.92c.78,0,1.42.64,1.42,1.42v5.67c0,.78-.64,1.42-1.42,1.42h0c-.78,0-1.42-.64-1.42-1.42v-5.67c0-.78.64-1.42,1.42-1.42h0Z"/>
        <path class="cls-4" d="M382.33,867.92c.78,0,1.42.64,1.42,1.42v5.67c0,.78-.64,1.42-1.42,1.42h0c-.78,0-1.42-.64-1.42-1.42v-5.67c0-.78.64-1.42,1.42-1.42h0Z"/>
        <path class="cls-4" d="M376.78,867.92c.78,0,1.42.64,1.42,1.42v5.67c0,.78-.64,1.42-1.42,1.42h0c-.78,0-1.42-.64-1.42-1.42v-5.67c0-.78.64-1.42,1.42-1.42h0Z"/>
        <path class="cls-4" d="M371.23,867.92c.78,0,1.42.64,1.42,1.42v5.67c0,.78-.64,1.42-1.42,1.42h0c-.78,0-1.42-.64-1.42-1.42v-5.67c0-.78.64-1.42,1.42-1.42h0Z"/>
        <path class="cls-4" d="M365.68,867.92c.78,0,1.42.64,1.42,1.42v5.67c0,.78-.64,1.42-1.42,1.42h0c-.78,0-1.42-.64-1.42-1.42v-5.67c0-.78.64-1.42,1.42-1.42h0Z"/>
        <path class="cls-4" d="M360.13,867.92c.78,0,1.42.64,1.42,1.42v5.67c0,.78-.64,1.42-1.42,1.42h0c-.78,0-1.42-.64-1.42-1.42v-5.67c0-.78.64-1.42,1.42-1.42h0Z"/>
        <path class="cls-4" d="M354.58,867.92c.78,0,1.42.64,1.42,1.42v5.67c0,.78-.64,1.42-1.42,1.42h0c-.78,0-1.42-.64-1.42-1.42v-5.67c0-.78.64-1.42,1.42-1.42h0Z"/>
        <path class="cls-4" d="M349.03,867.92c.78,0,1.42.64,1.42,1.42v5.67c0,.78-.64,1.42-1.42,1.42h0c-.78,0-1.42-.64-1.42-1.42v-5.67c0-.78.64-1.42,1.42-1.42h0Z"/>
        <path class="cls-4" d="M343.48,867.92c.78,0,1.42.64,1.42,1.42v5.67c0,.78-.64,1.42-1.42,1.42h0c-.78,0-1.42-.64-1.42-1.42v-5.67c0-.78.64-1.42,1.42-1.42h0Z"/>
        <path class="cls-4" d="M337.93,867.92c.78,0,1.42.64,1.42,1.42v5.67c0,.78-.64,1.42-1.42,1.42h0c-.78,0-1.42-.64-1.42-1.42v-5.67c0-.78.64-1.42,1.42-1.42h0Z"/>
        <path class="cls-4" d="M332.38,867.92c.78,0,1.42.64,1.42,1.42v5.67c0,.78-.64,1.42-1.42,1.42h0c-.78,0-1.42-.64-1.42-1.42v-5.67c0-.78.64-1.42,1.42-1.42h0Z"/>
        <path class="cls-4" d="M326.83,867.92c.78,0,1.42.64,1.42,1.42v5.67c0,.78-.64,1.42-1.42,1.42h0c-.78,0-1.42-.64-1.42-1.42v-5.67c0-.78.64-1.42,1.42-1.42h0Z"/>
        <path class="cls-4" d="M321.28,867.92c.78,0,1.42.64,1.42,1.42v5.67c0,.78-.64,1.42-1.42,1.42h0c-.78,0-1.42-.64-1.42-1.42v-5.67c0-.78.64-1.42,1.42-1.42h0Z"/>
        <path class="cls-4" d="M315.73,867.92c.78,0,1.42.64,1.42,1.42v5.67c0,.78-.64,1.42-1.42,1.42h0c-.78,0-1.42-.64-1.42-1.42v-5.67c0-.78.64-1.42,1.42-1.42h0Z"/>
        <path class="cls-4" d="M310.18,867.92c.78,0,1.42.64,1.42,1.42v5.67c0,.78-.64,1.42-1.42,1.42h0c-.78,0-1.42-.64-1.42-1.42v-5.67c0-.78.64-1.42,1.42-1.42h0Z"/>
        <path class="cls-4" d="M304.63,867.92c.78,0,1.42.64,1.42,1.42v5.67c0,.78-.64,1.42-1.42,1.42h0c-.78,0-1.42-.64-1.42-1.42v-5.67c0-.78.64-1.42,1.42-1.42h0Z"/>
        <path class="cls-4" d="M299.08,867.92c.78,0,1.42.64,1.42,1.42v5.67c0,.78-.64,1.42-1.42,1.42h0c-.78,0-1.42-.64-1.42-1.42v-5.67c0-.78.64-1.42,1.42-1.42h0Z"/>
        <rect class="cls-4" x="292.11" y="867.92" width="2.83" height="8.5" rx="1.42" ry="1.42"/>
        <path class="cls-4" d="M287.98,867.92c.78,0,1.42.64,1.42,1.42v5.67c0,.78-.64,1.42-1.42,1.42h0c-.78,0-1.42-.64-1.42-1.42v-5.67c0-.78.64-1.42,1.42-1.42h0Z"/>
        <path class="cls-4" d="M282.43,867.92c.78,0,1.42.64,1.42,1.42v5.67c0,.78-.64,1.42-1.42,1.42h0c-.78,0-1.42-.64-1.42-1.42v-5.67c0-.78.64-1.42,1.42-1.42h0Z"/>
        <path class="cls-4" d="M276.88,867.92c.78,0,1.42.64,1.42,1.42v5.67c0,.78-.64,1.42-1.42,1.42h0c-.78,0-1.42-.64-1.42-1.42v-5.67c0-.78.64-1.42,1.42-1.42h0Z"/>
        <path class="cls-4" d="M271.33,867.92c.78,0,1.42.64,1.42,1.42v5.67c0,.78-.64,1.42-1.42,1.42h0c-.78,0-1.42-.64-1.42-1.42v-5.67c0-.78.64-1.42,1.42-1.42h0Z"/>
        <path class="cls-4" d="M265.78,867.92c.78,0,1.42.64,1.42,1.42v5.67c0,.78-.64,1.42-1.42,1.42h0c-.78,0-1.42-.64-1.42-1.42v-5.67c0-.78.64-1.42,1.42-1.42h0Z"/>
        <path class="cls-4" d="M260.23,867.92c.78,0,1.42.64,1.42,1.42v5.67c0,.78-.64,1.42-1.42,1.42h0c-.78,0-1.42-.64-1.42-1.42v-5.67c0-.78.64-1.42,1.42-1.42h0Z"/>
        <path class="cls-4" d="M254.68,867.92c.78,0,1.42.64,1.42,1.42v5.67c0,.78-.64,1.42-1.42,1.42h0c-.78,0-1.42-.64-1.42-1.42v-5.67c0-.78.64-1.42,1.42-1.42h0Z"/>
        <path class="cls-4" d="M249.13,867.92c.78,0,1.42.64,1.42,1.42v5.67c0,.78-.64,1.42-1.42,1.42h0c-.78,0-1.42-.64-1.42-1.42v-5.67c0-.78.64-1.42,1.42-1.42h0Z"/>
        <path class="cls-4" d="M243.58,867.92c.78,0,1.42.64,1.42,1.42v5.67c0,.78-.64,1.42-1.42,1.42h0c-.78,0-1.42-.64-1.42-1.42v-5.67c0-.78.64-1.42,1.42-1.42h0Z"/>
        <path class="cls-4" d="M238.03,867.92c.78,0,1.42.64,1.42,1.42v5.67c0,.78-.64,1.42-1.42,1.42h0c-.78,0-1.42-.64-1.42-1.42v-5.67c0-.78.64-1.42,1.42-1.42h0Z"/>
        <path class="cls-4" d="M232.48,867.92c.78,0,1.42.64,1.42,1.42v5.67c0,.78-.64,1.42-1.42,1.42h0c-.78,0-1.42-.64-1.42-1.42v-5.67c0-.78.64-1.42,1.42-1.42h0Z"/>
        <path class="cls-4" d="M226.93,867.92c.78,0,1.42.64,1.42,1.42v5.67c0,.78-.64,1.42-1.42,1.42h0c-.78,0-1.42-.64-1.42-1.42v-5.67c0-.78.64-1.42,1.42-1.42h0Z"/>
        <path class="cls-4" d="M221.38,867.92c.78,0,1.42.64,1.42,1.42v5.67c0,.78-.64,1.42-1.42,1.42h0c-.78,0-1.42-.64-1.42-1.42v-5.67c0-.78.64-1.42,1.42-1.42h0Z"/>
        <path class="cls-4" d="M215.83,867.92c.78,0,1.42.64,1.42,1.42v5.67c0,.78-.64,1.42-1.42,1.42h0c-.78,0-1.42-.64-1.42-1.42v-5.67c0-.78.64-1.42,1.42-1.42h0Z"/>
        <path class="cls-4" d="M210.28,867.92c.78,0,1.42.64,1.42,1.42v5.67c0,.78-.64,1.42-1.42,1.42h0c-.78,0-1.42-.64-1.42-1.42v-5.67c0-.78.64-1.42,1.42-1.42h0Z"/>
        <path class="cls-4" d="M204.73,867.92c.78,0,1.42.64,1.42,1.42v5.67c0,.78-.64,1.42-1.42,1.42h0c-.78,0-1.42-.64-1.42-1.42v-5.67c0-.78.64-1.42,1.42-1.42h0Z"/>
        <path class="cls-4" d="M199.18,867.92c.78,0,1.42.64,1.42,1.42v5.67c0,.78-.64,1.42-1.42,1.42h0c-.78,0-1.42-.64-1.42-1.42v-5.67c0-.78.64-1.42,1.42-1.42h0Z"/>
        <path class="cls-4" d="M193.63,867.92c.78,0,1.42.64,1.42,1.42v5.67c0,.78-.64,1.42-1.42,1.42h0c-.78,0-1.42-.64-1.42-1.42v-5.67c0-.78.64-1.42,1.42-1.42h0Z"/>
        <path class="cls-4" d="M188.08,867.92c.78,0,1.42.64,1.42,1.42v5.67c0,.78-.64,1.42-1.42,1.42h0c-.78,0-1.42-.64-1.42-1.42v-5.67c0-.78.64-1.42,1.42-1.42h0Z"/>
        <path class="cls-4" d="M182.53,867.92c.78,0,1.42.64,1.42,1.42v5.67c0,.78-.64,1.42-1.42,1.42h0c-.78,0-1.42-.64-1.42-1.42v-5.67c0-.78.64-1.42,1.42-1.42h0Z"/>
        <path class="cls-4" d="M176.98,867.92c.78,0,1.42.64,1.42,1.42v5.67c0,.78-.64,1.42-1.42,1.42h0c-.78,0-1.42-.64-1.42-1.42v-5.67c0-.78.64-1.42,1.42-1.42h0Z"/>
        <path class="cls-4" d="M171.43,867.92c.78,0,1.42.64,1.42,1.42v5.67c0,.78-.64,1.42-1.42,1.42h0c-.78,0-1.42-.64-1.42-1.42v-5.67c0-.78.64-1.42,1.42-1.42h0Z"/>
        <path class="cls-4" d="M165.88,867.92c.78,0,1.42.64,1.42,1.42v5.67c0,.78-.64,1.42-1.42,1.42h0c-.78,0-1.42-.64-1.42-1.42v-5.67c0-.78.64-1.42,1.42-1.42h0Z"/>
        <path class="cls-4" d="M160.33,867.92c.78,0,1.42.64,1.42,1.42v5.67c0,.78-.64,1.42-1.42,1.42h0c-.78,0-1.42-.64-1.42-1.42v-5.67c0-.78.64-1.42,1.42-1.42h0Z"/>
        <path class="cls-4" d="M154.78,867.92c.78,0,1.42.64,1.42,1.42v5.67c0,.78-.64,1.42-1.42,1.42h0c-.78,0-1.42-.64-1.42-1.42v-5.67c0-.78.64-1.42,1.42-1.42h0Z"/>
        <path class="cls-4" d="M149.23,867.92c.78,0,1.42.64,1.42,1.42v5.67c0,.78-.64,1.42-1.42,1.42h0c-.78,0-1.42-.64-1.42-1.42v-5.67c0-.78.64-1.42,1.42-1.42h0Z"/>
        <path class="cls-4" d="M143.68,867.92c.78,0,1.42.64,1.42,1.42v5.67c0,.78-.64,1.42-1.42,1.42h0c-.78,0-1.42-.64-1.42-1.42v-5.67c0-.78.64-1.42,1.42-1.42h0Z"/>
        <path class="cls-4" d="M138.13,867.92c.78,0,1.42.64,1.42,1.42v5.67c0,.78-.64,1.42-1.42,1.42h0c-.78,0-1.42-.64-1.42-1.42v-5.67c0-.78.64-1.42,1.42-1.42h0Z"/>
        <path class="cls-4" d="M132.58,867.92c.78,0,1.42.64,1.42,1.42v5.67c0,.78-.64,1.42-1.42,1.42h0c-.78,0-1.42-.64-1.42-1.42v-5.67c0-.78.64-1.42,1.42-1.42h0Z"/>
        <path class="cls-4" d="M127.03,867.92c.78,0,1.42.64,1.42,1.42v5.67c0,.78-.64,1.42-1.42,1.42h0c-.78,0-1.42-.64-1.42-1.42v-5.67c0-.78.64-1.42,1.42-1.42h0Z"/>
        <path class="cls-4" d="M121.48,867.92c.78,0,1.42.64,1.42,1.42v5.67c0,.78-.64,1.42-1.42,1.42h0c-.78,0-1.42-.64-1.42-1.42v-5.67c0-.78.64-1.42,1.42-1.42h0Z"/>
        <path class="cls-4" d="M115.93,867.92c.78,0,1.42.64,1.42,1.42v5.67c0,.78-.64,1.42-1.42,1.42h0c-.78,0-1.42-.64-1.42-1.42v-5.67c0-.78.64-1.42,1.42-1.42h0Z"/>
        <path class="cls-4" d="M110.38,867.92c.78,0,1.42.64,1.42,1.42v5.67c0,.78-.64,1.42-1.42,1.42h0c-.78,0-1.42-.64-1.42-1.42v-5.67c0-.78.64-1.42,1.42-1.42h0Z"/>
        <path class="cls-4" d="M104.83,867.92c.78,0,1.42.64,1.42,1.42v5.67c0,.78-.64,1.42-1.42,1.42h0c-.78,0-1.42-.64-1.42-1.42v-5.67c0-.78.64-1.42,1.42-1.42h0Z"/>
        <path class="cls-4" d="M99.28,867.92c.78,0,1.42.64,1.42,1.42v5.67c0,.78-.64,1.42-1.42,1.42h0c-.78,0-1.42-.64-1.42-1.42v-5.67c0-.78.64-1.42,1.42-1.42h0Z"/>
        <path class="cls-4" d="M93.73,867.92c.78,0,1.42.64,1.42,1.42v5.67c0,.78-.64,1.42-1.42,1.42h0c-.78,0-1.42-.64-1.42-1.42v-5.67c0-.78.64-1.42,1.42-1.42h0Z"/>
        <path class="cls-4" d="M88.18,867.92c.78,0,1.42.64,1.42,1.42v5.67c0,.78-.64,1.42-1.42,1.42h0c-.78,0-1.42-.64-1.42-1.42v-5.67c0-.78.64-1.42,1.42-1.42h0Z"/>
        <path class="cls-4" d="M82.63,867.92c.78,0,1.42.64,1.42,1.42v5.67c0,.78-.64,1.42-1.42,1.42h0c-.78,0-1.42-.64-1.42-1.42v-5.67c0-.78.64-1.42,1.42-1.42h0Z"/>
        <path class="cls-4" d="M77.08,867.92c.78,0,1.42.64,1.42,1.42v5.67c0,.78-.64,1.42-1.42,1.42h0c-.78,0-1.42-.64-1.42-1.42v-5.67c0-.78.64-1.42,1.42-1.42h0Z"/>
        <path class="cls-4" d="M71.53,867.92c.78,0,1.42.64,1.42,1.42v5.67c0,.78-.64,1.42-1.42,1.42h0c-.78,0-1.42-.64-1.42-1.42v-5.67c0-.78.64-1.42,1.42-1.42h0Z"/>
        <path class="cls-4" d="M65.98,867.92c.78,0,1.42.64,1.42,1.42v5.67c0,.78-.64,1.42-1.42,1.42h0c-.78,0-1.42-.64-1.42-1.42v-5.67c0-.78.64-1.42,1.42-1.42h0Z"/>
        <path class="cls-4" d="M60.43,867.92c.78,0,1.42.64,1.42,1.42v5.67c0,.78-.64,1.42-1.42,1.42h0c-.78,0-1.42-.64-1.42-1.42v-5.67c0-.78.64-1.42,1.42-1.42h0Z"/>
        <path class="cls-4" d="M54.88,867.92c.78,0,1.42.64,1.42,1.42v5.67c0,.78-.64,1.42-1.42,1.42h0c-.78,0-1.42-.64-1.42-1.42v-5.67c0-.78.64-1.42,1.42-1.42h0Z"/>
        <path class="cls-4" d="M49.33,867.92c.78,0,1.42.64,1.42,1.42v5.67c0,.78-.64,1.42-1.42,1.42h0c-.78,0-1.42-.64-1.42-1.42v-5.67c0-.78.64-1.42,1.42-1.42h0Z"/>
        <path class="cls-4" d="M43.78,867.92c.78,0,1.42.64,1.42,1.42v5.67c0,.78-.64,1.42-1.42,1.42h0c-.78,0-1.42-.64-1.42-1.42v-5.67c0-.78.64-1.42,1.42-1.42h0Z"/>
        <path class="cls-4" d="M38.23,867.92c.78,0,1.42.64,1.42,1.42v5.67c0,.78-.64,1.42-1.42,1.42h0c-.78,0-1.42-.64-1.42-1.42v-5.67c0-.78.64-1.42,1.42-1.42h0Z"/>
        <rect class="cls-4" x="31.26" y="867.92" width="2.83" height="8.5" rx="1.42" ry="1.42"/>
        <path class="cls-4" d="M27.13,867.92c.78,0,1.42.64,1.42,1.42v5.67c0,.78-.64,1.42-1.42,1.42h0c-.78,0-1.42-.64-1.42-1.42v-5.67c0-.78.64-1.42,1.42-1.42h0Z"/>
        <path class="cls-4" d="M21.58,867.92c.78,0,1.42.64,1.42,1.42v5.67c0,.78-.64,1.42-1.42,1.42h0c-.78,0-1.42-.64-1.42-1.42v-5.67c0-.78.64-1.42,1.42-1.42h0Z"/>
        <path class="cls-4" d="M16.03,867.92c.78,0,1.42.64,1.42,1.42v5.67c0,.78-.64,1.42-1.42,1.42h0c-.78,0-1.42-.64-1.42-1.42v-5.67c0-.78.64-1.42,1.42-1.42h0Z"/>
        <path class="cls-4" d="M10.48,867.92c.78,0,1.42.64,1.42,1.42v5.67c0,.78-.64,1.42-1.42,1.42h0c-.78,0-1.42-.64-1.42-1.42v-5.67c0-.78.64-1.42,1.42-1.42h0Z"/>
        <path class="cls-4" d="M4.93,876.42h0c-.78,0-1.42-.64-1.42-1.42v-5.67c0-.78.64-1.42,1.42-1.42h0c.78,0,1.42.64,1.42,1.42v5.67c0,.78-.64,1.42-1.42,1.42Z"/>
      </g>
      <line class="cls-3" x1="624.07" y1="865.04" x2=".45" y2="865.04"/>
    </g>
    <path class="cls-2" d="M14.67.5C6.88.5.5,6.88.5,14.67v860.31h0c0,2.35,1.9,4.26,4.25,4.26h619.37V.5H14.67Z"/>
  </g>
</svg>